{"title":"Naruto Shippuden Episode 275 - With English Subtitle Mp4 [Jazz_S","uid":7599275,"size":44258974,"categoryP":"video","categoryS":"tv_shows","magnet":"?xt=urn:btih:5a5d6b6954487f2884d95ec05a6e21b32d0e1b4f&amp;dn=Naruto+Shippuden+Episode+275+-+With+English+Subtitle+Mp4+%5BJazz_S&amp;tr=udp%3A%2F%2Ftracker.openbittorrent.com%3A80&amp;tr=udp%3A%2F%2Fopen.demonii.com%3A1337&amp;tr=udp%3A%2F%2Ftracker.coppersurfer.tk%3A6969&amp;tr=udp%3A%2F%2Fexodus.desync.com%3A6969","seeders":0,"leechers":0,"uploader":"jazzsingh","files":1,"time":1346769465,"description":"Naruto Shippuuden Episode 275\n\n\nTitle: A Letter In the Heart\n\nRelease date : August 16th, 2012\n\nAudio language : Japanese\n\nSubTitle language : English\n\nimage\n\nGeneral\n\nFormat : MPEG-4\nFormat profile : Base Media\nCodec ID : isom\nFile size : 42.2 MiB\nDuration : 23mn 9s\nOverall bit rate mode : Variable\nOverall bit rate : 255 Kbps\n\n\nVideo\n\nFormat : AVC\nFormat/Info : Advanced Video Codec\nFormat profile : &lt;a class=&quot;__cf_email__&quot; href=&quot;/cdn-cgi/l/email-protection&quot; data-cfemail=&quot;4f072628270f037c617f&quot;&gt;[email&amp;#160;protected]&lt;/a&gt;&lt;script data-cfhash='f9e31' type=&quot;text/javascript&quot;&gt;\n/* &lt;![CDATA[ */!function(){try{var t=&quot;currentScript&quot;in document?document.currentScript:function(){for(var t=document.getElementsByTagName(&quot;script&quot;),e=t.length;e--;)if(t[e].getAttribute(&quot;data-cfhash&quot;))return t[e]}();if(t&amp;&amp;t.previousSibling){var e,r,n,i,c=t.previousSibling,a=c.getAttribute(&quot;data-cfemail&quot;);if(a){for(e=&quot;&quot;,r=parseInt(a.substr(0,2),16),n=2;a.length-n;n+=2)i=parseInt(a.substr(n,2),16)^r,e+=String.fromCharCode(i);e=document.createTextNode(e),c.parentNode.replaceChild(e,c)}t.parentNode.removeChild(t);}}catch(u){}}()/* ]]&gt; */&lt;/script&gt;\nFormat settings, CABAC : Yes\nFormat settings, ReFrames : 6 frames\nCodec ID : avc1\nCodec ID/Info : Advanced Video Coding\nDuration : 23mn 9s\nBit rate mode : Variable\nBit rate : 158 Kbps\nMaximum bit rate : 1 115 Kbps\nWidth : 640 pixels\nHeight : 360 pixels\nDisplay aspect ratio : 16:9\nOriginal display aspect ratio : 16:9\nFrame rate mode : Constant\nFrame rate : 23.976 fps\nColor space : YUV\nChroma subsampling : 4:2:0\nBit depth : 8 bits\nScan type : Progressive\nBits/(Pixel*Frame) : 0.029\nStream size : 26.1 MiB (62%)\nWriting library : x264 core 125 r2208 d9d2288\n\n\nAudio\n\nFormat : AAC\nFormat/Info : Advanced Audio Codec\nFormat profile : LC\nCodec ID : 40\nDuration : 23mn 9s\nBit rate mode : Variable\nBit rate : 93.3 Kbps\nMaximum bit rate : 151 Kbps\nChannel(s) : 2 channels\nChannel positions : Front: L R\nSampling rate : 44.1 KHz\nCompression mode : Lossy\nStream size : 15.5 MiB (37%)\n","torrent":{"xt":"urn:btih:5a5d6b6954487f2884d95ec05a6e21b32d0e1b4f","amp;dn":"Naruto+Shippuden+Episode+275+-+With+English+Subtitle+Mp4+%5BJazz_S","amp;tr":["udp%3A%2F%2Ftracker.openbittorrent.com%3A80","udp%3A%2F%2Fopen.demonii.com%3A1337","udp%3A%2F%2Ftracker.coppersurfer.tk%3A6969","udp%3A%2F%2Fexodus.desync.com%3A6969"],"infoHash":"5a5d6b6954487f2884d95ec05a6e21b32d0e1b4f","infoHashBuffer":{"type":"Buffer","data":[90,93,107,105,84,72,127,40,132,217,94,192,90,110,33,179,45,14,27,79]},"announce":[],"urlList":[]}}